<mxfile host="app.diagrams.net" modified="2024-05-11T15:14:41.179Z" agent="Mozilla/5.0 (Macintosh; Intel Mac OS X 10_15_7) AppleWebKit/605.1.15 (KHTML, like Gecko) Version/17.5 Safari/605.1.15" version="24.3.1" etag="Spib6k6QgCNeU9Ge3l1n" type="github">
  <diagram name="Page-1" id="wFD7gqvJp0gcO4nvl3kQ">
    <mxGraphModel>
      <root>
        <mxCell id="0" />
        <mxCell id="1" parent="0" />
      </root>
    </mxGraphModel>
  </diagram>
</mxfile>
